<svg viewBox="0 0 255.15 255.15" xmlns="http://www.w3.org/2000/svg" xmlns:xlink="http://www.w3.org/1999/xlink"><pattern id="a" height="28.8" patternTransform="translate(316.8)" patternUnits="userSpaceOnUse" viewBox="0 0 28.8 28.8" width="28.8"><path d="m0 0h28.8v28.8h-28.8z" fill="none"/><path d="m28.8 30.24a1.44 1.44 0 1 0 -1.44-1.44 1.44 1.44 0 0 0 1.44 1.44z" fill="#231f20"/><path d="m14.4 30.24a1.44 1.44 0 1 0 -1.4-1.44 1.44 1.44 0 0 0 1.4 1.44z" fill="#231f20"/><path d="m28.8 15.84a1.44 1.44 0 1 0 -1.44-1.44 1.44 1.44 0 0 0 1.44 1.44z" fill="#231f20"/><path d="m14.4 15.84a1.44 1.44 0 1 0 -1.4-1.44 1.44 1.44 0 0 0 1.4 1.44z" fill="#231f20"/><path d="m7.2 23a1.44 1.44 0 1 0 -1.44-1.4 1.44 1.44 0 0 0 1.44 1.4z" fill="#231f20"/><path d="m21.6 23a1.44 1.44 0 1 0 -1.44-1.44 1.44 1.44 0 0 0 1.44 1.44z" fill="#231f20"/><path d="m7.2 8.64a1.44 1.44 0 1 0 -1.44-1.44 1.44 1.44 0 0 0 1.44 1.44z" fill="#231f20"/><path d="m21.6 8.64a1.44 1.44 0 1 0 -1.44-1.44 1.44 1.44 0 0 0 1.44 1.44z" fill="#231f20"/><path d="m0 30.24a1.44 1.44 0 0 0 1.44-1.44 1.45 1.45 0 0 0 -1.44-1.44 1.44 1.44 0 0 0 -1.44 1.44 1.43 1.43 0 0 0 1.44 1.44z" fill="#231f20"/><path d="m0 15.84a1.44 1.44 0 0 0 1.44-1.44 1.45 1.45 0 0 0 -1.44-1.4 1.44 1.44 0 0 0 -1.44 1.4 1.43 1.43 0 0 0 1.44 1.44z" fill="#231f20"/><path d="m28.8 1.44a1.45 1.45 0 0 0 1.44-1.44 1.44 1.44 0 0 0 -1.44-1.44 1.43 1.43 0 0 0 -1.44 1.44 1.44 1.44 0 0 0 1.44 1.44z" fill="#231f20"/><path d="m14.4 1.44a1.45 1.45 0 0 0 1.44-1.44 1.44 1.44 0 0 0 -1.44-1.44 1.43 1.43 0 0 0 -1.4 1.44 1.44 1.44 0 0 0 1.4 1.44z" fill="#231f20"/><path d="m0 1.44a1.45 1.45 0 0 0 1.44-1.44 1.44 1.44 0 0 0 -1.44-1.44 1.43 1.43 0 0 0 -1.44 1.44 1.44 1.44 0 0 0 1.44 1.44z" fill="#231f20"/></pattern><circle cx="127.58" cy="127.58" fill="url(#a)" r="127.58"/></svg>